# xmcd CD database file
#
# Track frame offsets:
#	150
#	14751
#	29001
#	41008
#	59106
#	76334
#	91788
#	107131
#	122696
#	139070
#
# Disc length: 2087 seconds
#
# Revision: 1
# Processed by: cddbd v1.4PL0 Copyright (c) Steve Scherf et al.
# Submitted via: CDex 1.40Release
#
DISCID=8a08250a
DTITLE=Doug Stone - Harmful To The Heart
DYEAR=2001
DGENRE=Country
TTITLE0=The Rock
TTITLE1=Every Other Friday At Five
TTITLE2=Almost
TTITLE3=One Heartache at a Time
TTITLE4=Poor Man's Boulevard
TTITLE5=He Remembers Her
TTITLE6=P.O.W 369
TTITLE7=Bone Dry
TTITLE8=In The Name of Love
TTITLE9=Never Mine To Lose
EXTD=YEAR: 2001 ID3G: 2
EXTT0=
EXTT1=
EXTT2=
EXTT3=
EXTT4=
EXTT5=
EXTT6=
EXTT7=
EXTT8=
EXTT9=
PLAYORDER=
